<?xml version="1.0" encoding="utf-8"?>
<!-- Generator: Adobe Illustrator 23.0.6, SVG Export Plug-In . SVG Version: 6.00 Build 0)  -->
<svg version="1.1" id="Layer_1" xmlns="http://www.w3.org/2000/svg" xmlns:xlink="http://www.w3.org/1999/xlink" x="0px" y="0px"
	 viewBox="0 0 87.5 24.9" style="enable-background:new 0 0 87.5 24.9;" xml:space="preserve">
<style type="text/css">
	.st0{fill:#EBEBEB;}
	.st1{fill:#F05F00;}
	.st2{fill:#0E9FE2;}
</style>
<title>g2a_rgb_black_full</title>
<path class="st0" d="M38.3,9.9c-3.9,0-7.1,3.2-7.1,7.1v8h19.9l2.8-5.3H36.8v-2.1c0-1.3,1-2.3,2.3-2.3l11.2,0c4.2,0,7.5-3.4,7.5-7.5
	s-3.4-7.5-7.5-7.5L37,0.1c-2.9,0-5.3,2.4-5.3,5.3c0,0,0,0,0,0l18.2,0c1.2,0,2.2,0.9,2.3,2.2c0,1.2-0.9,2.2-2.1,2.3c0,0,0,0-0.1,0
	L38.3,9.9z"/>
<path class="st1" d="M12.7,19.6c-3.9,0-7.1-3.2-7.1-7.1c0-3.9,3.2-7.1,7.1-7.1l14.3,0V0.1l-14.7,0C5.5,0.2,0,5.7,0,12.5
	s5.5,12.4,12.4,12.4l14.7,0v-15l-15.9,0v5.3l10.4,0v4.4L12.7,19.6z"/>
<path class="st2" d="M71.6,21.9h-0.9c-0.8,0-1.5,0.7-1.5,1.5s0.7,1.5,1.5,1.5h0.9c0.8,0,1.5-0.7,1.5-1.5S72.4,21.9,71.6,21.9z
	 M71.5,24.3h-0.8c-0.5,0-0.9-0.4-0.9-0.9c0-0.5,0.4-0.9,0.9-0.9h0.8c0.5,0,0.9,0.4,0.9,0.9C72.4,23.9,72,24.3,71.5,24.3L71.5,24.3z"
	/>
<path class="st2" d="M65.5,23.4c0,0.8,0.7,1.5,1.5,1.5h1.7v-0.6h-1.7c-0.5,0-0.9-0.4-0.9-0.9c0-0.5,0.4-0.9,0.9-0.9h1.7v-0.6h-1.7
	C66.2,21.9,65.5,22.6,65.5,23.4z"/>
<polygon class="st2" points="76.4,21.9 75.7,23.7 75.1,21.9 74.3,21.9 73.1,24.9 73.8,24.9 74.7,22.6 75.4,24.6 76.1,24.6 
	76.8,22.6 77.6,24.9 78.3,24.9 77.2,21.9 "/>
<circle class="st2" cx="64.8" cy="24.5" r="0.4"/>
<path class="st2" d="M76,3c-0.4-0.8-1-1.5-1.7-2.1c-0.8-0.6-1.9-1-2.9-0.9c-1,0-2,0.3-2.8,0.9c-0.7,0.6-1.3,1.3-1.7,2.1
	c-4.6,8.8-11.6,21.9-11.6,21.9h6.3l9.8-18.7L76,15h-7.1l2.5,4.8h7.1l2.7,5.2h6.3C87.5,24.9,80.6,11.8,76,3z"/>
</svg>
